<?xml version="1.0" encoding="utf-8"?>
<!-- Generator: Adobe Illustrator 27.3.1, SVG Export Plug-In . SVG Version: 6.00 Build 0)  -->
<svg version="1.1" id="Layer_1" xmlns="http://www.w3.org/2000/svg" xmlns:xlink="http://www.w3.org/1999/xlink" x="0px" y="0px"
	 viewBox="0 0 203.9 115.8" style="enable-background:new 0 0 203.9 115.8;" xml:space="preserve">
<style type="text/css">
	.st0{fill:#37515F;}
</style>
<g>
	<path class="st0" d="M21.2,80.4H4.2c-2.1,0-2.2-1.1-1.1-2.5c1.5-2,2.4-4.4,2.5-7.1V33.3c-0.1-2.7-1-5.2-2.5-7.1
		c-1.1-1.4-1-2.5,1.1-2.5h12.1c2.5,0,3.6,0.8,3.6,2.6V46c3.2-2.6,8.4-4.3,14.2-4.3c9.2,0,14.3,3.9,14.3,10.8v18.3
		c0.1,2.7,1,5.2,2.5,7.1c1.1,1.4,1,2.5-1.1,2.5H37.6c-2.5,0-3.6-0.8-3.6-2.7V56.4c0-10.7-14.2-10.1-14.2-3v17.4
		c0.1,2.7,1,5.2,2.5,7.1C23.4,79.2,23.3,80.4,21.2,80.4z"/>
	<path class="st0" d="M97.2,46.9L82.9,73.3C78.9,81,72.3,96.6,59,96.4c-5.8-0.1-11.3-2.6-12.6-7.1c-1-3.2,0.3-5.6,4.5-6.4
		c2.9-0.5,5.8,0.3,6.5,2.6c0.5,1.5-0.8,5,2.3,5c3.3,0.1,6.7-4.7,9.6-9.9L67.8,78c-0.2-0.4-0.4-0.8-0.7-1.1l-14.6-30
		c-0.6-1.3-1.4-2.5-1.6-2.7c-1.1-1.4-0.9-2.5,1.2-2.5h15.2c1.3,0,2,0.6,2,1.4c0,1.3-1.5,1.7-1.4,4.4c0.1,1.4,0.4,2.4,0.9,3.8
		l7.8,17.3l7.6-16.2c1.4-2.9,0.4-6-1.1-8c-1.1-1.4-0.9-2.7,1.2-2.7c4.4,0,8.9,0,13.3,0c1.8,0,2.2,0.9,1.5,2
		C98.4,44.8,97.9,45.7,97.2,46.9z"/>
	<path class="st0" d="M148.3,46.9L132,73.3c-4,7.7-8.6,23.3-21.9,23.1c-5.8-0.1-11.3-2.6-12.6-7.1c-1-3.2,0.3-5.6,4.5-6.4
		c2.9-0.5,5.8,0.3,6.5,2.6c0.5,1.5-0.8,5,2.3,5c3.3,0.1,6.7-4.7,9.6-9.9l-1.5-2.7c-0.2-0.4-0.4-0.8-0.7-1.1l-14.6-30
		c-0.6-1.3-1.4-2.5-1.6-2.7c-1.1-1.4-0.9-2.5,1.2-2.5h15.2c1.3,0,2,0.6,2,1.4c0,1.3-1.5,1.7-1.4,4.4c0.1,1.4,0.4,2.4,0.9,3.8
		l7.8,17.3l7.6-16.2c1.4-2.9,0.4-6-1.1-8c-1.1-1.4-0.9-2.7,1.2-2.7c4.4,0,8.9,0,13.3,0c1.8,0,2.2,0.9,1.5,2
		C149.5,44.8,149,45.7,148.3,46.9z"/>
	<path class="st0" d="M202,59.4c0,20.7-20.8,24.8-29.9,18.2v11.8c0.1,2.7,1,5.2,2.5,7.1c1.1,1.4,1,2.5-1.1,2.5h-17.1
		c-2.1,0-2.2-1.1-1.2-2.5c1.6-2,2.5-4.4,2.6-7.1V51.3c-0.1-2.8-1-5.3-2.6-7.1c-1-1.4-0.9-2.5,1.2-2.5h12.1c2.5,0,3.6,0.8,3.6,2.7
		v1.1C181.8,38.2,202,39.9,202,59.4z M187.1,60.2c0-19.3-15-12.3-15-4.5v10.2C172.1,73.8,187.1,82.1,187.1,60.2z"/>
</g>
</svg>
